<svg width="233" height="34" viewBox="0 0 233 34" fill="none" xmlns="http://www.w3.org/2000/svg">
<g clip-path="url(#clip0_6693_2214)">
<path d="M224.382 22.9062H231.989V30.3393H224.382V22.9062Z" fill="white"/>
<path d="M196.026 2.67969H204.135V13.0666H213.113V2.67969H221.221V30.3654H213.113V19.6309H204.135V30.3654H196.026V2.67969Z" fill="white"/>
<path d="M180.199 30.9654C177.084 30.9654 174.42 30.4119 172.206 29.305C170.005 28.1981 168.319 26.5699 167.148 24.4204C165.989 22.2581 165.41 19.6324 165.41 16.5433C165.41 13.6731 165.983 11.1568 167.128 8.99447C168.287 6.81926 169.973 5.13315 172.187 3.93614C174.413 2.73913 177.091 2.14062 180.218 2.14062C182.497 2.14062 184.575 2.51389 186.454 3.26041C188.346 4.00693 189.93 5.13315 191.204 6.63906C192.491 8.1321 193.373 9.9791 193.849 12.1801L185.682 13.5315C185.412 11.8454 184.82 10.5454 183.906 9.63158C183.005 8.71774 181.744 8.26082 180.122 8.26082C179.028 8.26082 178.095 8.40883 177.322 8.70487C176.55 8.98803 175.919 9.45782 175.43 10.1142C174.413 11.4528 173.905 13.5959 173.905 16.5433C173.905 18.075 173.995 19.3235 174.175 20.2888C174.356 21.2413 174.69 22.0586 175.179 22.7408C175.694 23.4487 176.351 23.9764 177.149 24.3239C177.959 24.6585 178.957 24.8259 180.141 24.8259C181.711 24.8259 182.966 24.3883 183.906 23.513C184.858 22.6249 185.502 21.4022 185.837 19.8448L194.138 21.7754C193.096 24.7229 191.365 26.9946 188.945 28.5907C186.525 30.1738 183.61 30.9654 180.199 30.9654Z" fill="white"/>
<path d="M156.103 25.0367H146.72L145.137 30.3654H136.7L146.566 2.67969H156.354L166.181 30.3654H157.706L156.103 25.0367ZM154.25 18.9358L152.937 14.5726C152.847 14.2508 152.75 13.929 152.647 13.6072C152.055 11.638 151.637 10.0934 151.393 8.97364H151.335C150.987 10.4796 150.492 12.3459 149.848 14.5726L148.554 18.9358H154.25Z" fill="white"/>
<path d="M114.602 2.67969H136.032V8.66474H122.71V13.53H134.642V19.3027H122.71V24.3803H136.032V30.3654H114.602V2.67969Z" fill="white"/>
<path d="M110.68 23.9942C110.68 25.3456 110.789 26.4976 111.008 27.4501C111.24 28.4025 111.677 29.3357 112.321 30.2495L112.301 30.3654H103.807C103.343 29.6703 103.028 28.8916 102.861 28.0293C102.693 27.1669 102.61 25.9956 102.61 24.5155C102.61 23.1254 102.275 22.1343 101.606 21.5422C100.949 20.9502 99.9195 20.6541 98.5166 20.6541H94.9449V30.3654H86.9326V2.67969H99.9839C102.339 2.67969 104.341 2.9178 105.988 3.39403C107.649 3.87026 108.955 4.72619 109.907 5.96181C110.873 7.18456 111.355 8.87711 111.355 11.0394C111.355 12.7513 110.944 14.1736 110.12 15.3062C109.309 16.4389 108.176 17.3077 106.722 17.9126C109.36 18.8393 110.68 20.8665 110.68 23.9942ZM98.4394 14.9973C99.4819 14.9973 100.338 14.9136 101.007 14.7463C101.689 14.579 102.223 14.2572 102.61 13.781C102.996 13.2919 103.189 12.5968 103.189 11.6959C103.189 10.7692 102.996 10.0677 102.61 9.59145C102.223 9.11522 101.702 8.80632 101.046 8.66474C100.389 8.51028 99.5334 8.43306 98.478 8.43306H94.9449V14.9973H98.4394Z" fill="white"/>
<path d="M55.9287 2.67969H77.359V8.66474H64.0375V13.53H75.969V19.3027H64.0375V24.3803H77.359V30.3654H55.9287V2.67969Z" fill="white"/>
<path d="M26.9189 2.67969H35.0277V13.0666H44.0053V2.67969H52.1141V30.3654H44.0053V19.6309H35.0277V30.3654H26.9189V2.67969Z" fill="white"/>
<path d="M8.3407 9.34047H-0.231445V2.67969H25.0023V9.34047H16.4302V30.3654H8.3407V9.34047Z" fill="white"/>
</g>
<defs>
<clipPath id="clip0_6693_2214">
<rect width="233" height="34" fill="white"/>
</clipPath>
</defs>
</svg>
