<svg width="82" height="87" viewBox="0 0 82 87" fill="none" xmlns="http://www.w3.org/2000/svg">
<path d="M41.0002 26.65C48.4827 26.65 54.5302 20.6886 54.5302 13.3332C54.5302 5.9778 48.4827 0 41.0002 0C33.5177 0 27.4702 5.9614 27.4702 13.3127C27.4702 20.664 33.5177 26.65 41.0002 26.65Z" fill="black"/>
<path d="M74.8375 23.3701L77.4 19.9876L64.7188 9.60227L47.6177 33.7677C46.8278 34.7985 45.8078 35.6303 44.6392 36.1968C43.4707 36.7634 42.1858 37.0489 40.8873 37.0305C39.5888 37.0122 38.3125 36.6906 37.1604 36.0913C36.0083 35.492 35.0122 34.6317 34.2517 33.5791L17.3146 9.54077L4.6333 19.9261L7.1589 23.3701C11.0939 28.6308 16.2013 32.9016 22.0754 35.8433C27.9495 38.7851 34.4286 40.3168 40.9982 40.3168C47.5678 40.3168 54.0469 38.7851 59.921 35.8433C65.7952 32.9016 70.9025 28.6308 74.8375 23.3701Z" fill="black"/>
<path d="M49.9134 48.8881L49.6428 49.1587C47.3501 51.4501 44.2414 52.7372 41 52.7372C37.7586 52.7372 34.6498 51.4501 32.3572 49.1587L32.0866 48.8881C24.4237 39.6139 12.5747 33.3491 0 31.6599V49.0644H22.4311C27.8472 49.0644 32.2342 53.107 32.2342 58.0844V86.7844H49.7658V58.0844C49.7658 53.0988 54.1528 49.0644 59.5689 49.0644H81.9999V31.6599C69.4253 33.3491 57.5763 39.6139 49.9134 48.8881Z" fill="black"/>
<path d="M0 52.2463V66.461H13.7883C14.4527 66.461 15.0899 66.725 15.5597 67.1948C16.0295 67.6645 16.2934 68.3017 16.2934 68.9661V86.8011H29.5487C27.9251 71.1227 15.6005 54.12 0 52.2463Z" fill="black"/>
<path d="M52.4512 86.8011H65.7065V68.9661C65.7065 68.6372 65.7713 68.3114 65.8972 68.0075C66.023 67.7035 66.2076 67.4274 66.4402 67.1948C66.6728 66.9621 66.949 66.7776 67.2529 66.6517C67.5568 66.5258 67.8826 66.461 68.2116 66.461H81.9999V52.2463C66.4199 54.12 54.0748 71.1227 52.4512 86.8011Z" fill="black"/>
</svg>
