<svg width="67" height="66" viewBox="0 0 67 66" fill="none" xmlns="http://www.w3.org/2000/svg">
<path d="M12.7387 51.98C7.30122 51.98 3.89988 46.0905 6.62095 41.3799L15.2315 26.4653L3.7368 17.757C1.35587 22.3185 0 27.5043 0 33.0117C0 50.8617 14.1691 65.3943 31.8747 65.9953L30.5514 51.98H12.7387Z" fill="black"/>
<path d="M39.1245 6.2715L48.2149 22.0155L61.1772 15.7952C55.3717 6.32275 44.93 0 33.0067 0C21.0834 0 10.693 6.29014 4.88281 15.7207L17.752 22.0947L26.889 6.2715C29.6101 1.56089 36.4081 1.56089 39.1245 6.2715Z" fill="black"/>
<path d="M50.6799 26.2836L59.3976 41.3845C62.1187 46.0952 58.7173 51.9846 53.2798 51.9846H35.4531L34.1299 66C51.8401 65.4082 66.0186 50.871 66.0186 33.0163C66.0186 27.4996 64.658 22.3045 62.2678 17.7383L50.6799 26.2882V26.2836Z" fill="black"/>
</svg>
