<svg width="64" height="64" viewBox="0 0 64 64" fill="none" xmlns="http://www.w3.org/2000/svg">
<path d="M63.6702 30.0806V41.0767H57.0772C53.6572 41.0767 52.3572 43.6346 52.3572 46.7844V63.628H38.3326V46.7844C38.3326 43.6346 37.028 41.0767 33.608 41.0767H30.0622C26.6422 41.0767 25.3423 43.6346 25.3423 46.7844V63.628H11.3129V46.7844C11.3129 43.6346 10.013 41.0767 6.59298 41.0767H0V30.0806C7.94887 31.1476 7.35713 35.108 12.2029 40.9695L12.3753 41.1372C15.3899 44.1518 21.2653 44.1518 24.2799 41.1372L24.4523 40.9695C28.4873 36.0865 28.3103 30.2576 31.8328 30.2576C35.3552 30.2576 35.1828 36.0865 39.2178 40.9695L39.3902 41.1419C42.4095 44.1565 48.2803 44.1565 51.2949 41.1419L51.4627 40.9742C56.3037 35.1127 55.7167 31.1522 63.6655 30.0852L63.6702 30.0806Z" fill="black"/>
<path d="M63.6702 0V10.9961H57.0772C53.6572 10.9961 52.3572 13.5541 52.3572 16.7038V33.5474H38.3326V16.7038C38.3326 13.5541 37.028 10.9961 33.608 10.9961H30.0622C26.6422 10.9961 25.3423 13.5541 25.3423 16.7038V33.5474H11.3129V16.7038C11.3129 13.5541 10.013 10.9961 6.59298 10.9961H0V0C7.94887 1.06699 7.35713 5.02745 12.2029 10.8889L12.3753 11.0567C15.3899 14.0713 21.2653 14.0713 24.2799 11.0567L24.4523 10.8889C28.4873 6.00592 28.3103 0.177056 31.8328 0.177056C35.3552 0.177056 35.1828 6.00592 39.2178 10.8889L39.3902 11.0613C42.6658 14.3369 48.024 14.3322 51.2949 11.0613L51.4627 10.8936C56.3037 5.03211 55.7167 1.07165 63.6655 0.00465936L63.6702 0Z" fill="black"/>
</svg>
