<svg width="64" height="64" viewBox="0 0 64 64" fill="none" xmlns="http://www.w3.org/2000/svg">
<path d="M43.2814 8.80198C39.8288 12.0682 37.1171 16.038 35.3279 20.4411L33.096 25.9205C31.8147 29.0749 29.3499 31.6049 26.2328 32.9748L20.129 35.6585C16.3456 37.3219 12.9023 39.6749 9.97626 42.601L0.256836 52.3204L11.3601 63.4237L20.8093 53.4433C23.6562 50.438 25.9159 46.9295 27.4722 43.0949L29.9789 36.9305C31.3115 33.6597 33.9067 31.0644 37.1776 29.7318L43.342 27.2251C47.1766 25.6642 50.6851 23.4044 53.6904 20.5622L63.6708 11.113L52.5675 0.00976562L43.2767 8.80664L43.2814 8.80198Z" fill="black"/>
<path d="M31.8003 28.3386C31.0688 29.4196 30.1788 30.3841 29.1631 31.1995C30.1742 31.9217 31.0781 32.779 31.8422 33.7528C32.6203 32.765 33.5382 31.8984 34.5633 31.1715C33.5056 30.3748 32.5737 29.4196 31.8003 28.3433V28.3386Z" fill="black"/>
<path d="M42.9875 35.0713L37.5081 32.8395C37.0514 32.6531 36.6088 32.4388 36.1801 32.2058C34.8895 33.0026 33.7712 34.0509 32.8906 35.2856C33.1981 35.8122 33.4684 36.3573 33.7013 36.9304L36.2081 43.0947C37.769 46.9294 40.0288 50.4379 42.871 53.4432L52.3202 63.4235L63.4234 52.3203L54.6265 43.0295C51.3603 39.5769 47.3906 36.8652 42.9875 35.076V35.0713Z" fill="black"/>
<path d="M20.3335 27.22L26.4978 29.7267C26.8566 29.8712 27.206 30.0389 27.5508 30.216C28.8694 29.2794 29.9597 28.068 30.7751 26.6562C30.6633 26.4326 30.5514 26.2043 30.4489 25.9759L27.7651 19.8722C26.1017 16.0888 23.7488 12.6455 20.8227 9.71943L11.1033 0L0 11.1033L9.98035 20.5524C12.9856 23.3993 16.4941 25.6591 20.3288 27.2153L20.3335 27.22Z" fill="black"/>
</svg>
