<svg width="64" height="65" viewBox="0 0 64 65" fill="none" xmlns="http://www.w3.org/2000/svg">
<g id="Group 616">
<path id="Vector" d="M38.0204 50.0416H63.6702V34.7728H52.3945C45.2144 34.7728 38.505 38.3605 34.5212 44.3385C32.5456 47.3065 29.2142 49.0864 25.6498 49.0864H0V64.3551H11.2757C18.4557 64.3551 25.1652 60.7674 29.149 54.7894C31.1245 51.8214 34.456 50.0416 38.0204 50.0416Z" fill="black"/>
<path id="Vector_2" d="M38.0204 32.6668H63.6702V17.3981H52.3945C45.2144 17.3981 38.505 20.9858 34.5212 26.9637C32.5456 29.9318 29.2142 31.7116 25.6498 31.7116H0V46.9804H11.2757C18.4557 46.9804 25.1652 43.3927 29.149 37.4147C31.1245 34.4467 34.456 32.6668 38.0204 32.6668Z" fill="black"/>
<path id="Vector_3" d="M38.0204 15.2687H63.6702V0H52.3945C45.2144 0 38.505 3.58771 34.5212 9.56567C32.5456 12.5337 29.2142 14.3136 25.6498 14.3136H0V29.5823H11.2757C18.4557 29.5823 25.1652 25.9946 29.149 20.0166C31.1245 17.0486 34.456 15.2687 38.0204 15.2687Z" fill="black"/>
</g>
</svg>
